<?xml version="1.0" encoding="UTF-8"?>
<svg id="Layer_1" xmlns="http://www.w3.org/2000/svg" version="1.1" viewBox="0 0 480.76 145.02">
  <!-- Generator: Adobe Illustrator 29.6.0, SVG Export Plug-In . SVG Version: 2.1.1 Build 207)  -->
  <defs>
    <style>
      .st0 {
        fill: #052c76;
        stroke: #fff;
        stroke-miterlimit: 10;
      }
    </style>
  </defs>
  <g>
    <path class="st0" d="M79.76,2.65c7.24.63,14.64,3.93,20.34,8.5,1.82,1.47,3.58,3.53,5.35,5.03.76.64,3.44,2.89,4.16,3.1,2.7.74,5.14-1.77,7.51-2.13,1.8-.28,3.43.33,2.31,2.31-.21.37-1.63,2.03-2,2.41-2.49,2.57-5.31,3.88-7.55,6.94-7.1,9.69-7.43,22-6.78,33.5.06,1.2-.06,2.42,0,3.64-1.7.39-2.48-1.07-3.11-2.4-1.16-2.44-1.45-5.14-2.02-7.74-.09-.41-.08-1.52-.54-1.51v5.51c0,.08-.66,1.17-.82,1.43-5.31.32-6.91-6.16-5.98-10.43.69-3.2,4.75-5.6,5.21-8.98.86-6.57-4.46-13.54-10.1-16.33-9.35-4.63-19.47-.52-24.5,8.21-5.51,9.54-1.67,20.03,6.09,26.87,12.69,11.2,43.63,22.82,32.9,44.83-9.35,19.19-37.84,15.77-46.57-2.2-3.02-6.23-3.1-13.06-2.57-19.8.05-.74.45-3.09.8-3.61.59-.91,2.56.99,3.17,1.56,5.76,5.38,14.15,13.04,21.06,16.76,3.21,1.74,7.01,1.8,5.11-2.9-.95-2.34-6.6-6.52-8.83-8.18-8.38-6.2-17.62-11.32-25.05-18.75l-.95-.16c-.65,3.4-1.45,6.81-1.87,10.25-2.02,16.61.8,34.18,16.48,43.33,24.34,14.21,49.88-3.26,47.21-30.78-1.06-10.85-7.23-15.15-15.49-21.06-7.67-5.49-24.49-14.46-26.7-24.03-2.91-12.68,13.6-19.07,19.1-9.32,1.56,2.78,2.75,9.97-2.3,9.22-2.35-.35-2.87-4.97-4.41-6.61-2.09-2.24-6.11-2.21-7.34.88-.96,2.43.4,5.13,1.96,7.01,7.09,8.61,19.66,15.31,28.51,22.21,2.08,1.63,3.99,3.49,6.01,5.17-.05-.98.07-2.01,0-3-.58-8.81-.66-18.02.29-26.77.49-4.45,1.26-10.98,4.61-14.29,1.17-1.16,2.98-.56,3.47.91.56,1.7-1.39,6.6-1.73,8.7-2.06,12.82-.7,27.61-.33,40.59.33,11.07,1.43,21.7-3.2,32.08-3.28,7.36-10.69,14.69-18.24,17.68-1.52.6-4.92,1.16-6,1.88-1.35.9.74,2.2,1.75,2.35,3.9.59,11.96-4.37,16.47-5.26,7.71-1.53,16.68,3.24,23.82-.77,2.54-1.42,4.19-4.08,4.01-7.04-.29-4.73-5.32-8.19-9.58-5.45-3.22,2.08-1.22,5.12-1.84,7.92-.49,2.24-3.99,2.66-5.62,1.01-2.66-2.69-1.41-8.22.79-10.87,7.85-9.5,23.93-1.1,21.15,10.11-.86,3.45-2.97,5.05-5.22,7.54,3.45.3,6.65-1.77,9.14-3.93,4.06-3.51,9.09-11.46,14.68-12.11,2-.23,5.47-.23,5.81,2.35.37,2.86-2.32,3.1-4.07,4.1-6.66,3.87-10.85,11.71-18.23,14.54-3.57,1.38-6.87,1.46-10.66,1.35-1.59-.05-2.7-.59-4.58-.19-2.84.61-1.77,2.33-2.85,4.08-1.18,1.9-2.73-1.37-3.44-2.16-6.77-7.85-18.56-1.65-26.73.07-8.66,1.82-19.83,1.33-28.45-.69-8.01-1.87-14.68-6.32-22.91-2.11-1.41.72-2,1.84-3.99,1.27s-.99-5.74-.04-7.18c3.48-5.2,13.88-3,18.83-1.2,3.1,1.13,5.56,2.78,8.81,3.79,4.74,1.48,9.91,2.23,14.9,1.81,1.96-.17,3.49-.45,2.38-2.7-9.07-.05-18.41-2.2-25.84-7.56-19.22-13.9-17.6-32-17.05-53.49.19-7.17.8-15.28.32-22.38-.52-7.74-4.74-11.59-9.47-16.98-2.08-2.38-5.96-8.21-9.54-7.65s-4.28,4.7-5.3,7.47c-1.05.27-1.55-.36-2.19-1.08-6.56-7.53,2.25-17.32,11.03-13.86,3.56,1.41,4.49,4.45,6.56,7.31.2.27-.05.58.69.4-.41-1.9-.45-4.18-.33-6.15.41-7.39,3.55-15.77,12.47-14.94,3.68.34,7.31,3.9,4.57,7.42-2.73,3.51-5.69-1.59-8.38-1.74-2.42-.12-3.58,4.62-3.88,6.48-1.09,6.49.02,14.79,3.38,20.51.17.28.3.69.69.72,2.42-17.16,15.53-31.78,32.95-34.32.61-.09,1.67-.3,2.03-.34,1.7-.16,4.6-.14,6.31,0h0l-.02.02ZM101.51,35.41c.19-2.16,3.26-6.03,3.16-8.01-.07-1.39-3.08-5.74-4.09-6.95-8.38-9.92-22.01-14.11-34.45-9.85-11.65,3.99-20.81,17.59-21.68,29.67-1.84,25.59,19.13,32.13,35.47,45.52,4.8,3.93,11.23,10.59,6.14,16.85-1.7,2.09-4.03,3.22-6.75,2.96-5.6-.53-15.34-8.9-19.88-12.57-.78-.63-1.33-1.59-2.36-1.88.12,17.05,20.57,28.41,34.2,16.68,4.09-3.52,5.42-9.07,4.17-14.25-2.4-10.06-12.43-14.48-20.2-19.81-9.5-6.52-19.69-13.25-22.76-25.13-5.57-21.57,18.87-39.52,37.78-27.98,5.25,3.2,8.6,8.49,10.78,14.12.12.3.03.72.47.63h0Z"/>
    <path class="st0" d="M26.79,98.07c.07-1.33.03-2.72-.67-3.89-1.24-2.08-5.77-2.91-4.44-5.78,1.16-2.52,5.81-2.27,7.85-1.09,2.44,1.41,3.06,4.31,3.52,6.87.8,4.25.7,8.51,1.7,12.79,1.3,5.6,3.71,10.14,6.9,14.83.34.51,2.3,2.59,1.84,3.04-.88-.05-1.8.07-2.69,0-4.04-.27-8.72-2.1-12.43.49-2.34,1.63-2.24,3.54-2.36,6.14-2.78,1.16-5.53-2.05-5.83-4.61-.87-7.52,6.25-10.25,12.58-9.89.09-.45-.03-.52-.33-.78-1.29-1.16-7.45-3.29-9.37-3.86-1.26-.37-4.8-1.41-5.9-1.37-1.88.07-4.35,2.05-5.14,3.71-1.12,2.34.22,5.76-.06,8.29-3.43.3-7.39-1.87-7.86-5.53-.78-6.02,2.48-10.81,8.42-12.02,5.57-1.15,11.1,1.2,16.48,2.44-.05-1.49-1.43-3.01-2.55-3.91-7.63-6.22-22.79-8.24-21.7-21.42,1.2-14.25,21.7-13.46,22.68-27.09.24-3.38-1.29-7.55-4.52-9.04-2.49-1.16-6.29-1.09-7.92,1.34-.68,1-.74,2.44,0,3.45.92,1.26,3.45,1.19,3.87,3.06.46,2.04-.91,3.74-2.78,4.36-4.53,1.52-9.08-1.55-9.48-6.3-1.01-12.41,19.3-17.15,25.29-4.8,4.63,9.56-1.48,17.87-9.23,23.03-3.89,2.59-9.75,4.99-11.49,9.63-1.3,3.49-.58,6.71,1.74,9.6s9.26,6.3,12.75,8.05c.37.2.59.42,1.12.3v-.02h0v-.02Z"/>
    <path class="st0" d="M28.61,70.75c2.83-.51,4.72,1.37,5.38,3.94.5,1.95.41,4.28-.87,5.91-.38.5-1.18,1.22-1.8,1.36-7.08,1.56-7.87-10.28-2.7-11.21h-.01Z"/>
    <path class="st0" d="M107.09,3.66c3.76-.8,7.2,2.39,5.21,6.14-2.26,4.28-9.47,1.3-8.12-3.39.34-1.18,1.7-2.51,2.91-2.77h0v.02Z"/>
  </g>
  <g>
    <path class="st0" d="M134.76,34.21c-.14.93-.27,2.03-.36,3.29-.09,1.26-.17,2.54-.23,3.8s-.1,2.45-.14,3.57-.05,2.01-.05,2.68v18.16c1.9-1.26,3.97-2.34,6.2-3.21s4.41-1.32,6.54-1.32c1.34,0,2.61.21,3.8.61,1.19.41,2.24,1.07,3.13,1.98s1.61,2.1,2.12,3.57.78,3.27.78,5.39v15.03c0,.89.04,1.62.14,2.15.09.54.32.96.69,1.25.37.3.93.51,1.68.61.75.11,1.75.21,3.01.28l-.11,2.07c-1.19,0-2.56-.02-4.1-.05-1.54-.03-3.21-.05-5-.05-1.45,0-2.83.02-4.13.05-1.3.04-2.48.05-3.52.05l-.17-1.79c1.15-.11,2.09-.26,2.82-.45s1.28-.5,1.68-.92c.39-.42.65-1.05.78-1.84.13-.8.2-1.91.2-3.32v-11.79c0-3.01-.67-5.18-2.01-6.48s-3.08-1.96-5.2-1.96c-1.42,0-2.92.25-4.53.76s-3.2,1.22-4.81,2.15v19.27c0,.89.05,1.62.17,2.15.11.54.35.96.72,1.25.37.3.92.51,1.65.61s1.71.21,2.93.28l-.17,2.07c-1.19,0-2.53-.02-4-.05-1.47-.03-3.1-.05-4.89-.05-1.45,0-2.87.02-4.25.05-1.38.04-2.59.05-3.64.05l-.11-1.79c1.23-.11,2.21-.28,2.93-.51s1.29-.57,1.71-1.04.68-1.12.81-1.96.2-1.97.2-3.38v-41.61c0-1.08-.06-1.93-.2-2.54s-.39-1.09-.78-1.43-.97-.59-1.76-.78c-.78-.19-1.8-.39-3.08-.61l-.17-1.62c1.05-.19,2.15-.41,3.32-.67s2.3-.53,3.38-.81,2.09-.56,3.04-.84,1.72-.55,2.32-.81l.61.45h.03l.02.05Z"/>
    <path class="st0" d="M166.55,78.55c0-2.38.43-4.64,1.32-6.76.87-2.12,2.07-3.97,3.57-5.53s3.28-2.81,5.33-3.72,4.25-1.37,6.59-1.37c2.53,0,4.84.43,6.93,1.32,2.08.88,3.86,2.07,5.33,3.57,1.47,1.51,2.61,3.27,3.41,5.3.8,2.03,1.2,4.19,1.2,6.5s-.43,4.68-1.32,6.78c-.87,2.1-2.06,3.94-3.57,5.5-1.51,1.56-3.29,2.81-5.36,3.72s-4.28,1.37-6.62,1.37c-2.54,0-4.84-.43-6.9-1.32-2.07-.87-3.83-2.07-5.3-3.57-1.47-1.51-2.61-3.27-3.41-5.3-.8-2.03-1.2-4.19-1.2-6.5h0ZM184.09,92.52c1.64,0,3.04-.39,4.22-1.17s2.14-1.79,2.91-3.01c.77-1.23,1.32-2.61,1.68-4.13.35-1.52.53-3.06.53-4.58,0-1.79-.2-3.61-.59-5.48s-1.01-3.54-1.87-5.05-1.97-2.74-3.32-3.72c-1.36-.96-3-1.45-4.94-1.45-1.68,0-3.1.38-4.28,1.15-1.17.77-2.13,1.76-2.88,2.99s-1.29,2.61-1.65,4.13-.53,3.06-.53,4.58c0,1.71.21,3.5.61,5.36s1.05,3.56,1.9,5.09c.86,1.53,1.97,2.8,3.32,3.8,1.36,1,2.99,1.51,4.89,1.51,0,0,0-.02,0-.02Z"/>
    <path class="st0" d="M216.82,61.63c-.07.63-.14,1.19-.23,1.68-.07.49-.09,1.19-.05,2.12,1.71-1.49,3.46-2.57,5.25-3.24,1.79-.67,3.55-1,5.3-1,1.94,0,3.79.39,5.56,1.17,1.77.79,3.32,1.86,4.66,3.24,1.34,1.38,2.41,3.02,3.21,4.94s1.2,4,1.2,6.22c0,2.71-.51,5.21-1.53,7.49-1.03,2.27-2.42,4.22-4.19,5.84-1.77,1.62-3.82,2.89-6.17,3.8-2.34.91-4.86,1.37-7.54,1.37-.26,0-.61-.02-1.04-.05-.42-.04-.9-.09-1.42-.17-.52-.07-1.07-.18-1.65-.31-.58-.13-1.15-.29-1.71-.48v18.16c0,.89.06,1.62.2,2.17.13.56.45.99.95,1.32.5.32,1.26.55,2.29.69s2.43.26,4.22.33l-.11,2.07c-.6,0-1.34,0-2.24-.03-.89-.02-1.86-.03-2.91-.03s-2.03,0-3.08-.03c-1.05-.02-2.01-.03-2.91-.03-1.45,0-2.89.02-4.3.05s-2.64.05-3.69.05l-.17-1.79c1.26-.11,2.28-.28,3.04-.51s1.35-.57,1.76-1.04.68-1.12.81-1.96.2-1.97.2-3.38v-39.32c0-1.05-.05-1.86-.17-2.45s-.37-1.07-.78-1.42-.99-.62-1.76-.81c-.77-.19-1.8-.37-3.1-.56l-.17-1.56c1.12-.23,2.26-.47,3.41-.72s2.26-.53,3.32-.81c1.07-.28,2.01-.55,2.85-.81s1.5-.49,1.99-.67l.67.45v.02h.03ZM216.54,88.94c1,1.15,2.22,1.98,3.64,2.45,1.42.49,2.85.72,4.3.72,1.79,0,3.33-.35,4.64-1.07,1.3-.7,2.38-1.67,3.24-2.88s1.5-2.6,1.93-4.16c.42-1.56.64-3.2.64-4.92s-.24-3.44-.72-5.05-1.18-3.06-2.09-4.3c-.91-1.24-2.05-2.25-3.41-2.99s-2.91-1.12-4.66-1.12c-3.1,0-5.58.8-7.49,2.4v20.91h-.02Z"/>
    <path class="st0" d="M246.54,40.51c.45,0,1.22,0,2.32.03,1.1.02,2.32.03,3.66.03s2.7,0,4.08.03c1.38.02,2.57.03,3.57.03.67,1.61,1.35,3.18,2.04,4.74.68,1.56,1.39,3.15,2.09,4.74l15.98,35.19,15.47-35.92c.63-1.45,1.24-2.91,1.84-4.38s1.19-2.93,1.79-4.38c.7,0,1.72,0,3.04-.03,1.33-.02,2.67-.03,4.05-.03s2.73,0,3.97-.03c1.23-.02,2.1-.03,2.63-.03l.11,1.9c-1.64.11-2.95.29-3.94.53-.98.24-1.74.61-2.26,1.12-.52.51-.86,1.2-1,2.09-.15.89-.21,2.03-.17,3.41l1.17,37.59c.03.89.16,1.64.36,2.24s.58,1.09,1.12,1.48,1.3.68,2.29.87c.98.19,2.3.32,3.94.39l-.11,2.01c-.67,0-1.45,0-2.35-.03-.89-.02-1.84-.03-2.85-.03s-1.96,0-2.96-.03-1.96-.03-2.85-.03c-.75,0-1.52,0-2.32.03-.8.02-1.59.03-2.37.03s-1.53,0-2.24.03c-.7.02-1.33.03-1.84.03l-.17-1.9c1.35-.11,2.41-.29,3.21-.53s1.42-.62,1.84-1.15c.42-.52.68-1.22.78-2.09s.12-2,.08-3.38l-1.17-35.64c-3.27,7.56-6.5,15.05-9.69,22.48-3.18,7.43-6.36,14.98-9.52,22.65l-2.68.33c-1.08-2.64-3.67-8.47-7.77-17.48s-7.95-17.5-11.56-25.47l-1.23,32.4c-.07,1.75-.04,3.12.11,4.1.15.98.47,1.73.95,2.24.49.51,1.17.84,2.07,1,.89.17,2.05.31,3.46.41l-.11,2.01c-1.19,0-2.48-.02-3.85-.05-1.38-.03-2.96-.05-4.74-.05-1.42,0-2.9.02-4.44.05-1.54.04-2.97.05-4.28.05l-.17-1.9c1.52-.14,2.78-.32,3.74-.53s1.73-.62,2.29-1.25.95-1.58,1.17-2.85.37-3.01.45-5.25l1.17-28.87c.03-1.34.03-2.49,0-3.44-.04-.95-.13-1.77-.28-2.45s-.35-1.27-.61-1.76c-.26-.49-.6-.93-1-1.34-.7-.7-1.61-1.19-2.68-1.45s-2.33-.42-3.74-.51l.11-2.01v-.02.03Z"/>
    <path class="st0" d="M337.64,76.09c.03-.26.05-.58.05-.95v-4.08c0-1.9-.46-3.47-1.37-4.72-.91-1.24-2.37-1.87-4.38-1.87-1.08,0-2,.2-2.77.59s-1.4.9-1.9,1.53c-.51.63-.88,1.36-1.12,2.17-.24.82-.36,1.68-.36,2.57-.6.49-1.42.72-2.45.72-.86,0-1.67-.2-2.43-.59-.77-.39-1.15-.97-1.15-1.76,0-.59.23-1.21.69-1.84s1.08-1.25,1.84-1.87c.77-.61,1.61-1.2,2.54-1.76s1.88-1.05,2.85-1.45c2.5-1.08,4.95-1.62,7.37-1.62,1.19,0,2.31.16,3.36.48s1.96.82,2.73,1.51,1.4,1.57,1.84,2.65.67,2.36.67,3.85c0,2.24-.04,4.82-.11,7.74-.07,2.92-.11,6.17-.11,9.75,0,1.45.28,2.59.84,3.41s1.34,1.23,2.34,1.23c.89,0,1.86-.32,2.9-.95l1,1.51c-.86.82-1.91,1.49-3.16,2.01s-2.51.78-3.77.78-2.51-.35-3.6-1.07c-1.1-.7-1.83-1.92-2.21-3.62-.37.26-.95.65-1.73,1.17s-1.68,1.06-2.68,1.59c-1,.54-2.08,1.01-3.24,1.43-1.15.4-2.26.61-3.29.61-1.23,0-2.34-.23-3.36-.67s-1.87-1.06-2.6-1.81c-.72-.77-1.28-1.64-1.68-2.63-.39-.98-.59-2.04-.59-3.16,0-1.9.55-3.53,1.65-4.89s2.54-2.41,4.33-3.16c1.3-.52,3.04-1.06,5.22-1.59,2.17-.54,4.77-.96,7.79-1.25l.04.03v-.02ZM337.53,87.77c0-1.56.02-3.09.05-4.58s.05-3.01.05-4.58c-1,.11-2.02.25-3.04.41s-2.02.38-2.99.64c-.96.26-1.88.6-2.73,1-.86.41-1.58.89-2.17,1.45-.93.82-1.4,1.88-1.4,3.18,0,1.56.4,2.89,1.2,3.97s2.04,1.62,3.72,1.62c1.19,0,2.43-.28,3.74-.84,1.3-.56,2.5-1.33,3.57-2.29h.01v.02Z"/>
    <path class="st0" d="M371.43,94.14c-.6,0-1.32,0-2.15-.03-.84-.02-1.74-.03-2.71-.03s-1.96,0-2.96-.03-1.96-.03-2.85-.03c-1.45,0-2.85.02-4.19.05-1.34.04-2.54.05-3.57.05l-.17-1.79c1.23-.11,2.21-.27,2.93-.48.72-.21,1.28-.55,1.68-1.04s.65-1.15.78-1.98c.13-.84.2-1.97.2-3.38v-14.47c0-1.05-.05-1.86-.17-2.45-.11-.59-.34-1.07-.69-1.42s-.88-.62-1.59-.81c-.7-.19-1.66-.37-2.85-.56l-.17-1.56c1-.19,2.05-.4,3.13-.64,1.08-.24,2.12-.51,3.13-.78s1.95-.56,2.82-.84,1.59-.53,2.15-.76l.67.45c-.19,1.16-.3,2.3-.33,3.44-.04,1.14-.05,2.26-.05,3.38,1.19-1.45,2.28-2.65,3.27-3.6.98-.95,1.88-1.7,2.71-2.24.82-.54,1.57-.91,2.26-1.12s1.37-.31,2.04-.31c.96,0,1.86.24,2.68.72.82.49,1.23,1.28,1.23,2.4,0,.75-.37,1.56-1.12,2.45s-1.73,1.71-2.96,2.45c-.67-.59-1.37-1.06-2.09-1.37-.72-.32-1.52-.48-2.37-.48s-1.79.37-2.8,1.12-1.82,1.82-2.45,3.24c-.19.41-.3.78-.33,1.09-.04.32-.05.74-.05,1.25v13.68c0,.89.06,1.62.2,2.15.13.54.43.96.92,1.25.49.3,1.19.51,2.12.61.93.11,2.22.21,3.85.28l-.11,2.07-.02.03-.02.04Z"/>
    <path class="st0" d="M393.49,77.77c-.75,0-1.12.14-1.12.45v9.55c0,.89.04,1.62.15,2.15.09.54.32.96.67,1.25.35.3.88.51,1.59.61.7.11,1.7.21,2.96.28l-.11,2.07c-1.19,0-2.52-.02-3.97-.05-1.45-.03-3.08-.05-4.86-.05-1.45,0-2.93.02-4.44.05-1.51.04-2.79.05-3.82.05l-.11-1.79c1.3-.11,2.35-.27,3.16-.48.8-.21,1.42-.55,1.84-1.04s.7-1.15.84-1.98c.13-.84.2-1.97.2-3.38v-41.73c0-1.08-.05-1.93-.17-2.54s-.36-1.09-.76-1.43c-.39-.33-.96-.59-1.71-.78s-1.75-.39-3.01-.61l-.23-1.62c1.08-.23,2.21-.47,3.38-.72s2.3-.52,3.38-.78,2.07-.52,2.98-.79c.91-.26,1.65-.51,2.21-.72l.61.45c-.15.97-.28,2.08-.39,3.32-.11,1.25-.2,2.51-.25,3.77s-.09,2.45-.11,3.57-.03,2.01-.03,2.68v27.65c0,.19.05.31.17.36.11.05.39.08.84.08.93,0,1.81-.24,2.65-.72.84-.49,1.79-1.3,2.88-2.45l2.96-3.18c.93-1,1.59-1.77,1.98-2.29.39-.52.59-.95.59-1.28,0-.49-.32-.85-.95-1.09s-1.49-.41-2.57-.53l.17-1.68h1.07c.49,0,.97,0,1.48.03.51.02.97.03,1.43.03h3.18c1.05,0,2.22,0,3.52-.03,1.3-.02,2.92-.08,4.86-.2l.17,1.9c-.78.11-1.52.22-2.21.31s-1.36.23-2.01.41-1.32.45-1.98.78-1.38.8-2.12,1.4c-1.68,1.3-3.13,2.59-4.36,3.85s-2.2,2.27-2.9,3.01c-.45.45-.67.78-.67,1,0,.26.13.52.39.78l7.77,9.17c1.34,1.56,2.43,2.81,3.27,3.74s1.59,1.64,2.29,2.12c.69.49,1.43.81,2.21.97s1.79.29,3.01.36l-.11,2.07c-1,0-2.34-.02-4.02-.05-1.68-.03-3.46-.05-5.36-.05-1.34,0-2.62.02-3.85.05-1.23.04-2.38.05-3.46.05l-.11-1.79c.93-.11,1.72-.23,2.37-.36s.97-.46.97-.97c0-.3-.09-.58-.28-.84s-.49-.63-.89-1.12l-8.71-10.22c-.33-.37-.72-.64-1.17-.81s-.89-.25-1.34-.25h-.01l-.03.03Z"/>
    <path class="st0" d="M450.69,87.94c-1.19,1.56-2.42,2.82-3.69,3.77s-2.48,1.69-3.64,2.21-2.22.87-3.18,1.07c-.96.19-1.73.28-2.29.28-2.31,0-4.43-.42-6.37-1.28s-3.6-2.03-5-3.52-2.48-3.23-3.24-5.22-1.15-4.1-1.15-6.34c0-2.5.46-4.82,1.37-6.95.91-2.14,2.12-4.01,3.64-5.61,1.51-1.61,3.25-2.86,5.22-3.77,1.98-.91,4-1.37,6.09-1.37,1.68,0,3.27.27,4.77.81,1.51.54,2.82,1.32,3.94,2.32,1.12,1,2.01,2.22,2.68,3.64s1,2.99,1,4.74v.78l-.05.78c-.19,1-.7,1.51-1.56,1.51h-21.12c.04,2.57.42,4.76,1.17,6.59s1.71,3.31,2.88,4.47c1.17,1.15,2.49,2,3.94,2.54s2.89.81,4.3.81c1.52,0,2.98-.26,4.36-.78s2.83-1.54,4.36-3.08l1.56,1.62h.01v-.02ZM442.43,73.24c.75,0,1.23-.13,1.45-.41s.33-.76.33-1.43c0-1-.17-1.96-.51-2.85-.33-.89-.82-1.68-1.45-2.34-.63-.67-1.42-1.19-2.34-1.56-.93-.37-1.98-.56-3.13-.56-.89,0-1.79.21-2.68.61-.89.41-1.73,1-2.52,1.79s-1.46,1.74-2.04,2.88-.97,2.43-1.2,3.88h14.09Z"/>
    <path class="st0" d="M466.11,50.57c-.07.89-.15,1.93-.2,3.1s-.1,2.35-.13,3.52c-.04,1.17-.06,2.27-.08,3.29s-.03,1.85-.03,2.49l9.55-.17.45.39-.17,2.85h-9.83v17.99c0,1.45.13,2.64.41,3.57s.67,1.68,1.17,2.24c.51.56,1.09.94,1.76,1.15s1.4.31,2.17.31,1.68-.09,2.57-.28,1.77-.37,2.63-.56l.39,2.01c-1.45.7-3.01,1.32-4.69,1.81s-3.29.76-4.86.76c-1.08,0-2.07-.14-2.99-.41-.91-.28-1.72-.76-2.43-1.43-.7-.67-1.25-1.55-1.65-2.65s-.59-2.44-.59-4.05v-1.51c0-.67,0-1.75.03-3.24s.03-3.48.03-5.98v-9.71h-5.02l-.39-.39.23-2.17,5.2-.39v-4.64c0-.93,0-1.88-.03-2.85-.02-.96-.03-1.9-.03-2.8.56-.23,1.14-.46,1.73-.69.6-.24,1.17-.48,1.73-.69s1.06-.43,1.48-.64.76-.38.97-.53l.61.33h.01v-.03Z"/>
  </g>
</svg>