<?xml version="1.0" encoding="UTF-8"?><svg id="Layer_1" xmlns="http://www.w3.org/2000/svg" width="47.66" height="42.28" viewBox="0 0 47.66 42.28"><defs><style>.cls-1{fill:#002874;}</style></defs><path class="cls-1" d="M35.1,42.28c-.61-.76-.92-1.32-1.88-1.69-2.25-.87-4.41.34-6.58.8-3.08.67-6.5.49-9.55-.3-2.22-.58-3.82-1.61-6.16-.54-.46.21-1.36,1.07-1.61.02-.35-1.48.82-2.54,2.2-2.67,3.13-.31,5.6,1.89,8.68,2.27.49.06,2.96.2,3.16-.22.03-.06-.1-.49-.07-.62-2.48.02-5.22-.51-7.33-1.87-5.75-3.71-5.97-9.01-5.83-15.34.07-2.85.81-7.19-.18-9.81-.43-1.13-2.82-4.06-3.76-4.91-.72-.64-1.5-1.12-2.36-.38-.49.42-.68,1.91-1.07,1.91-2.4-2.02-.49-5.18,2.53-4.63,1.45.26,1.53,1.39,2.3,2.28.08.1.09.2.27.16-.33-2.53.24-6.68,3.66-6.37,1.04.09,2.06.99,1.51,2.06-.88,1.7-2.39-1.46-3.37.15s-.56,5.28.19,6.99c.04.09.5,1.11.68.89C11.51,1.79,21.44-3.21,28.7,2.32c.8.61,1.47,1.43,2.25,2.04.39.3.99.81,1.48.73.4-.07,2.53-1.31,2.55-.38.01.7-2.22,2.24-2.74,2.85-1.39,1.63-2.09,3.99-2.29,6.1-.17,1.79-.06,3.59-.05,5.38-.29.43-.81-.54-.89-.73-.35-.75-.43-1.57-.59-2.37-.03-.14,0-.3-.19-.33v1.48c0,.62-.49.72-.99.51-.88-.38-1.2-1.82-1.1-2.69.15-1.33,1.49-1.93,1.61-3.15.16-1.61-.9-3.4-2.17-4.32-5.17-3.76-11.35,2.47-8.28,7.89,2.83,5,14.92,7.9,11.94,15.27-2.23,5.53-9.68,5.62-13.22,1.35-1.76-2.12-2.01-4.65-1.81-7.33.03-.36.09-1.56.57-1.34.2.09.88.92,1.14,1.15,1.09.96,5.56,4.68,6.73,4.8.82.09.93-.5.68-1.16-.53-1.44-5.83-4.64-7.31-5.75-1.07-.8-2.04-1.72-3.1-2.52-.13-.02-.17.07-.22.17-.1.23-.22,1.12-.28,1.44-1,5.62-.45,11.78,5.05,14.8,7.77,4.26,15.84-2.28,13.85-10.71-1.22-5.19-10.81-7.33-12.47-12.02-1.32-3.72,3.35-6.36,5.49-3.39.49.68.97,2.77-.19,2.94-.94.14-1.05-.95-1.39-1.55-1.1-1.92-3.56-.7-2.25,1.49,1.51,2.53,6.6,5.33,9.03,7.27.3.24,1.56,1.55,1.68,1.56.17,0,.08-.22.08-.26-.1-2.98-.55-9.96.94-12.44.29-.48,1.05-1.38,1.49-.57.28.53-.31,1.93-.43,2.58-.87,4.76-.15,10.64-.02,15.5.14,5.25-1.61,10.06-6.82,12.06-.3.11-1.84.42-1.76.8.12.14.38.37.54.42,1.27.33,3.79-1.31,5.24-1.57,2.32-.42,6.12,1.32,7.84-.84,1.39-1.75-.4-4.26-2.31-3.27-1.53.8.11,2.83-1.36,3.02s-1.59-1.67-1.2-2.73c1.63-4.45,9.55-.77,6.02,3.73-.1.13-.88.79-.76.91,3.23.07,4.99-5.59,8.2-4.91.56.12.87.51.69,1.07-.21.62-.77.59-1.23.87-2.64,1.57-3.6,4.47-7.14,4.77-.93.08-2.2-.24-2.99-.04-.68.17-.6.85-.85,1.38h-.29ZM29.47,9.89c.17-.98,1.25-1.87.82-2.86-.85-1.96-3.31-3.91-5.3-4.61C15.36-.98,8.23,11.62,14.56,18.75c2.29,2.58,9.9,6.45,10.68,9.24.27.98.02,1.91-.77,2.57-1.25,1.05-2.5.43-3.72-.28-1.69-1-3.21-2.37-4.71-3.62-.12,4.83,5.5,8.43,9.69,5.64,3.27-2.17,2.27-6.04-.35-8.26-3.31-2.8-8.01-4.29-10.08-8.51C10.83,6.37,24.55-.73,29.08,9.09c.05.1.28.89.39.8Z"/><path class="cls-1" d="M6.85,19.57c-1.73,1.61-5.77,2.6-4.76,5.73.21.65.75,1.27,1.27,1.68.4.31,3,1.81,3.38,1.87.23.03.16-.27.15-.43-.09-1.4-.87-1.03-1.43-1.81s.48-1.29,1.19-1.29c2.49,0,2.17,3.66,2.46,5.36.39,2.35,1.38,4.27,2.83,6.12-1.04.28-2.13-.2-3.2-.14-.75.04-1.58.3-1.94,1.02-.25.5.14,1.38-.44,1.38-.48,0-1.12-.55-1.31-.99-.97-2.34,1.68-3.67,3.64-3.5.03-.15-.05-.2-.14-.29-.42-.39-3.57-1.45-4.2-1.51-.68-.07-.99.04-1.47.51-.96.94-.46,1.91-.47,3.1-2.91.14-3.12-3.57-.98-4.84,1.93-1.15,4.23-.13,6.22.27-.81-1.83-3.1-2.34-4.7-3.35-1.88-1.19-3.02-2.47-2.61-4.86.62-3.62,6.36-3.64,6.73-7.47.12-1.22-.37-2.61-1.61-3.03-.97-.33-2.57,0-2.26,1.31.17.75,1.25.51,1.31,1.37.11,1.58-2.87,1.61-3.51-.02-1.55-3.92,5.74-6.56,7.56-1.85.84,2.17-.1,4.19-1.7,5.68Z"/><path class="cls-1" d="M7.53,20.58c1.92-.26,2.24,3.73.09,3.39-1.49-.24-1.58-3.18-.09-3.39Z"/><path class="cls-1" d="M31.26.29c1.18-.2,2.09.96,1.35,2.01-.61.86-2.13.42-2.33-.6-.12-.65.33-1.3.98-1.41Z"/></svg>